<svg width="20" height="27" viewBox="0 0 20 27" fill="none" xmlns="http://www.w3.org/2000/svg">
<path d="M17.5 9H16.25V6.5C16.25 3.05 13.45 0.25 10 0.25C6.55 0.25 3.75 3.05 3.75 6.5V9H2.5C1.125 9 0 10.125 0 11.5V24C0 25.375 1.125 26.5 2.5 26.5H17.5C18.875 26.5 20 25.375 20 24V11.5C20 10.125 18.875 9 17.5 9ZM10 20.25C8.625 20.25 7.5 19.125 7.5 17.75C7.5 16.375 8.625 15.25 10 15.25C11.375 15.25 12.5 16.375 12.5 17.75C12.5 19.125 11.375 20.25 10 20.25ZM13.875 9H6.125V6.5C6.125 4.3625 7.8625 2.625 10 2.625C12.1375 2.625 13.875 4.3625 13.875 6.5V9Z" fill="#5F5F5F"/>
</svg>
